<svg xmlns="http://www.w3.org/2000/svg" xml:space="preserve" x="0" y="0" version="1.1" viewBox="0-103 2176 366" width="218px" height="37px"><path d="M118 186c-18 0-34-2-49-7a90 90 0 01-61-55 140 140 0 01-8-50V-60h82V72c0 15 3 26 10 33a40 40 0 00 27 10c10 0 20-3 26-10 7-6 10-16 10-31V-60h82V70c0 21-2 39-8 53S215 150 205 160s-23 16-38 20c-15 5-31 7-49 7zM263-60h75l85 106V-60h80v240h-71l-90-110v110h-80V-60zM660 186c-19 0-37-3-53-9a130 130 0 01-43-25 118 118 0 01-40-90V60a124 124 0 01 39-90 130 130 0 01 42-26 155 155 0 01 109 0c16 7 30 16 44 27l-45 54A100 100 0 00 688 10C679 7 670 5 660 5a54 54 0 00-40 16c-5 6-9 11-11 18-3 7-4 15-4 23 0 10 1 17 4 24a52 52 0 00 30 30 80 80 0 00 40 3l10-5V90h-40V40h116v110A160 160 0 01 660 186zm232 0a181 181 0 01-123-40l43-52a138 138 0 00 84 28c8 0 13 0 16-3 3-2 5-4 5-7 0-4-3-7-7-10l-26-7a260 260 0 01-71-23c-10-6-17-13-22-22-6-8-9-20-9-32 0-12 3-23 7-33 4-10 10-18 20-25 8-8 19-13 31-17a182 182 0 01 153 26l-40 55A120 120 0 00 881 0c-6 0-10 0-13 3-3 1-4 4-4 7l1 5 5 4 10 4 16 3A237 237 0 01 970 50a60 60 0 01 28 53 74 74 0 01-28 60c-10 7-20 12-34 16s-28 5-44 5zm233-250h25L1261 180h-30l-28-65h-132l-29 65h-28l110-245zm68 156-56-124-55 124m304 93a120 120 0 01-113-76 130 130 0 01-10-50A130 130 0 01 1300-30a119 119 0 01 88-37 149 149 0 01 55 10l20 13 20 16-20 20c-10-10-20-18-33-24-12-6-26-10-43-10A90 90 0 00 1300 20c-4 12-7 26-7 40s3 27 7 40a98 98 0 00 50 53 90 90 0 00 37 8c17 0 31-4 44-10a150 150 0 00 35-26l18 18c-6 7-13 12-20 18a122 122 0 01-77 25zM1560-37h-82v-26h190v26h-81V180H1560V-37zm128-26h28v244h-28V-63" fill="#FFF"/><path d="M1732-63h30l87 210 87-210h30L1860 182h-24L1732-63" fill="#36A9E1"/><path d="M2065-64H2040l-111 245h28l95-213 96 213h28" fill="#E6332A"/><path d="M1977 195h13c7 0 11 0 15 3 3 2 4 6 4 10 0 5-3 10-9 12 5 1 11 6 11 14 0 4-2 8-4 10-4 4-10 6-20 6a80 80 0 01-10-1v-54zm7 23h6c8 0 12-4 12-10s-5-8-12-8a30 30 0 00-6 0v18zm0 26h6c7 0 14-3 14-10 0-8-7-10-14-10h-6v20zm65-20h-21v20h23v5h-30v-54h30v6h-23v17h20v6zm23-23h-16v-6h40v6h-17v48h-7v-48zm33 31-6 17h-7l18-54h9l18 54h-7l-6-17h-20zm17-5-5-16-3-10-3 10-5 16h16" fill="#FFF"/></svg>
