<svg xmlns="http://www.w3.org/2000/svg" xml:space="preserve" x="0" y="0" version="1.1" viewBox="0 0 1000 300" width="100" height="30"><path d="M7 76c0-1 1-2 3-2h55c28 0 47 12 55 35 2 10 4 19 4 49s-2 39-4 48c-8 23-26 35-55 35H10a3 3 0 01-3-2V77ZM30 221h30c20 0 33-7 39-23a121 122 0 00 3-40c0-26-1-34-3-40C93 100 80 93 60 93H30c-2 0-2 0-2 2V220l1 1zm111-63c0-28 2-38 5-48 8-26 28-39 57-39 29 0 46 15 55 34v3l-16 7-3-1C230 99 220 92 203 92c-20 0-31 9-36 24a130 130 0 00-4 42c0 26 1 35 4 40 5 17 17 26 36 26 16 0 30-8 35-24 2-6 3-14 3-27l-1-1h-32a3 3 0 01-3-3v-14c0-1 1-3 3-3H260l2 3v13c0 14-2 28-4 37-8 25-30 40-56 40-29 0-50-14-57-40-3-10-5-20-5-47zm137 65V220l10-13c1-2 3-2 4 0a80 80 0 00 46 17c23 0 37-12 37-29 0-14-8-24-35-27l-8-1c-32-5-50-20-50-47 0-30 22-49 55-49a88 90 0 01 50 16c2 0 2 2 0 3l-7 14h-4a74 74 0 00-40-12c-20 0-30 10-30 27 0 14 8 23 34 26l8 2c33 4 49 19 49 47 0 30-20 50-60 50-24 0-47-10-60-20zm140 63a3 3 0 01-4-3V270c0-2 2-2 3-2h4c10 0 15-5 20-18l4-11-43-112c0-2 0-2 2-2h17c2 0 3 0 3 2l30 85h1l30-85c0-2 2-2 3-2h17c1 0 2 0 1 2L460 250c-10 28-20 35-36 35h-7zm140-45a3 3 0 01-3-2V96c0-1 0-2-2-2h-45c-1 0-2 0-2-2V76c0-1 0-2 2-2h116c1 0 2 0 2 2v16c0 1 0 2-2 2h-46l-1 1V240s-1 2-3 2h-17zM640 97a3 3 0 01-2-3V77c0-2 0-3 2-3h17c1 0 2 1 2 3v18c0 1 0 2-2 2H640zm0 144s-2 0-2-2V126c0-2 1-2 3-2h16s2 0 2 2v113l-2 2h-16" fill="#fff"/><g fill="#fff" fill-rule="evenodd" clip-rule="evenodd"><path d="M748 54a226 228 0 01 94-5A132 134 0 01 930 95c14 20 20 45 17 69a143 144 0 00 14-108 150 150 0 00-214-2Z"/><path d="M820 290a226 228 0 01-51-79 132 134 0 01-4-100c10-23 27-40 50-50a143 144 0 00-100 42A150 150 0 00 820 290"/><path d="M988 110a226 228 0 01-44 85 132 134 0 01-86 52c-24 3-48-5-66-20a143 144 0 00 84 67 150 150 0 00 112-183"/></g><path d="m863 70-30 126a7 7 0 11-14-3l30-124c-45 1-80 38-80 83 0 42 30 77 70 82L870 107a7 7 0 11 14 3l-30 125a82 82 0 00 79-83c0-42-30-76-70-82" fill="#fff"/></svg>
