<svg xmlns="http://www.w3.org/2000/svg" version="1.1" viewBox="0 0 10319 1905" width="390" height="72"><path d="M2347 335v350c0 40 32 70 75 70 44 0 77-30 77-70v-350h136v352c0 104-80 172-200 172h-26c-120 0-200-68-200-172V335Zm758 242v275h-130V608c0-31-21-56-50-56-30 0-56 27-56 60v240h-130V467h99l12 56c30-38 67-64 125-64 76 0 130 40 130 110zm233-171h-130v-97h130zm0 60v386h-130V467Zm270 240h6l70-240h125l-130 386h-150L3400 467h137zm635-80v52h-258c0 60 18 98 69 98 43 0 67-24 67-68h120c0 96-77 151-180 151h-10c-114 0-200-68-200-189v-22c0-120 84-189 196-189h16c104 0 180 60 180 160zm-258-10h129c0-46-20-74-63-74-40 0-64 30-66 74zm670-40c0 14-2 30-4 43h-106v-17c0-25-12-50-43-50-30 0-44 23-44 57v243h-126V467h96l14 56c5-10 38-64 106-64 72 0 106 40 106 110zm407-13c0 5 0 12-2 18h-110v-5c0-25-30-35-60-35s-63 6-63 28c0 63 243-6 243 158 0 100-86 132-174 132h-32c-88 0-164-42-164-117v-15h110v6c0 34 40 43 72 43 24 0 72-4 72-30 0-67-242-1-242-160 0-88 90-127 172-127h19c72 0 159 37 159 104zm223-157h-130v-97h130zm0 60v386h-130V467Zm340 43v-200h128v543H5650l-13-47c-23 30-54 54-102 54-90 0-162-63-162-197v-8c0-130 65-195 147-195 52 0 86 24 104 50zm-121 110v84c0 46 26 73 60 73 34 0 60-27 60-73V620c0-46-26-73-60-73-34 0-60 27-60 73zm715-40v170c0 20 10 27 23 27 10 0 22-4 28-7v74c-10 6-32 16-70 16-62 0-94-25-100-63a160 160 0 01-127 63c-62 0-134-14-134-113 0-110 99-130 254-130v-24c0-31-20-51-60-51-33 0-57 20-57 40v4h-124v-12c0-65 68-114 174-114h20c116-8 173 42 173 112zm-246 157c0 30 20 40 52 40a70 70 0 00 68-70V680c-81 0-120 18-120 55zm599-227v-200H6700v543h-102l-13-47c-22 30-54 54-102 54-90 0-162-63-162-197v-8c0-130 65-195 147-195 52 0 86 24 104 50zm-121 110v84c0 46 26 73 60 73 34 0 60-27 60-73V620c0-46-26-73-60-73-34 0-60 27-60 73zm797-67 33 56 3-3v-270h125v517h-116l-150-220-30-50-3 2v268h-125V335H7100l148 217zm632 28v169c0 20 12 27 23 27 10 0 23-4 30-7v74c-10 6-34 16-72 16-62 0-94-25-100-63a160 160 0 01-127 63c-62 0-133-14-133-113 0-110 98-130 253-130v-24c0-31-18-51-58-51-34 0-58 20-58 40v4h-125v-12c0-65 68-114 174-114h20C7824 450 7880 500 7880 570zm-245 156c0 30 20 40 50 40a70 70 0 00 70-70V680c-82 0-120 18-120 55zm722-115H8240c0-48-20-80-61-80-39 0-63 34-63 76v88c0 40 21 70 63 70 45 0 67-21 67-78h111c0 109-75 162-172 162h-17a180 180 0 01-187-187v-26c0-110 82-187 186-187h17c100 0 173 64 173 162zm216-215h-128v-97h128zm0 60v386h-128V467Zm89 203v-20c0-116 83-190 193-190h18c110 0 194 74 194 190v20c0 117-84 190-194 190h-18c-110 0-193-74-193-190zm270 33v-85c0-48-30-75-68-75s-68 27-68 75v85c0 47 30 74 68 74s68-27 68-74zm588-125v275h-130V608c0-31-20-56-50-56s-56 27-56 60v240h-130V467h98l13 56c29-38 67-64 125-64 76 0 130 40 130 110zm464 3v169c0 20 10 27 22 27 10 0 23-4 30-7v74c-10 6-33 16-72 16-62 0-93-25-100-63a160 160 0 01-127 63c-61 0-133-14-133-113 0-110 99-130 254-130v-24c0-31-20-51-60-51-33 0-57 20-57 40v4h-124v-12c0-65 68-114 174-114h20c116-8 173 42 173 112zm-246 156c0 30 20 40 50 40a70 70 0 00 70-70V680c-80 0-120 18-120 55zm493-427v533H10100v-540ZM2444 1315v-200h130v543H2470l-12-46c-23 29-54 54-103 54-90 0-162-63-162-198v-10c0-130 66-193 147-193 53-1 87 23 104 49zm-120 110v85c0 46 26 73 60 73 34 0 60-27 60-73v-85c0-46-26-74-60-74-34 0-60 28-60 73zm720 8v52h-257c0 60 18 98 69 98 43 0 67-25 67-70h121c0 97-78 153-180 153h-12c-113 0-200-70-200-190v-20c0-120 85-190 197-190h16c104 0 180 65 180 167zm-257-10h129c0-47-20-74-63-74-40 0-64 29-66 73zm944-97h-127c0-60-38-86-90-86-53 0-93 37-93 98v125c0 60 40 100 93 100s90-27 90-84v-12H3500v-94h230l2 180c0 53 4 86 6 105h-73l-20-56a200 200 0 01-147 64h-5c-124 0-215-94-215-228v-78c0-134 97-228 233-228h16c115 0 206 77 206 192zm470 108v52h-258c0 60 18 98 68 98 43 0 67-25 67-70H4200c0 97-78 153-181 153h-11c-113 0-200-70-200-190v-20c0-120 84-190 197-190h15c105 1 180 66 180 168zm-258-10h129c0-47-20-74-64-74-39 0-63 29-65 73zm702-40v275h-129v-240c0-32-22-57-50-57-30 0-57 28-57 60v240h-130V1280h91l13 57c30-40 67-64 125-64 76 0 130 43 130 118zm470 50v52h-258c0 60 20 98 70 98 42 0 66-25 66-70h121c0 97-77 153-180 153h-12c-113 0-200-70-200-190v-20c0-120 85-190 197-190h16c105 1 180 66 180 168zm-258-10h130c0-47-20-74-64-74-40 0-63 29-66 73zm660-40c0 13 0 29-2 42h-107v-17c0-24-12-48-43-48-28 0-43 22-43 56v241h-127v-380h96l15 57c4-10 37-64 105-64 73 0 107 45 107 117zm422 3v170c0 20 10 27 22 27 10 0 23-5 30-8v74c-10 7-33 18-70 18-60 0-90-26-100-63a160 160 0 01-121 63c-62 0-133-12-133-112 0-110 100-130 254-130v-23c0-30-19-50-59-50-34 0-58 20-58 40V1400h-124v-12c0-65 68-114 174-114h20c115 0 172 50 172 120zm-246 156c0 32 21 40 51 40a70 70 0 00 70-68v-27c-83 0-120 18-120 55zm484-426v542h-130v-540Zm666 172v10h-126c0-34-25-57-75-57s-75 17-75 40c0 88 286 24 286 214 0 125-90 175-220 175-113 0-215-48-215-163v-17h128v10c0 36 24 64 82 64 70 0 86-25 86-47 0-87-284-20-284-220 0-107 96-160 210-160s203 48 203 155zm450 98v170c0 20 10 27 22 27 10 0 23-5 29-8v74c-10 7-33 18-70 18-63 0-94-26-100-63a160 160 0 01-128 63c-62 2-133-12-133-112 0-110 98-130 254-130v-23c0-30-20-50-60-50-33 0-57 20-57 40V1400h-124v-12c0-65 67-114 174-114h20c116 0 173 50 173 120zm-246 156c0 32 21 40 51 40a70 70 0 00 70-68v-27c-83 0-120 18-120 55zm677-160c0 14 0 30-3 43h-106v-17c0-24-12-48-43-48-28 0-44 22-44 56v241h-126v-380h96l15 57c4-10 37-64 105-64 72 0 106 45 106 117zm396-56c27-43 65-60 111-60 73 0 125 46 125 120v273h-128V1420c0-34-18-55-44-55-28 0-50 24-50 60v240h-127V1420c0-34-18-55-45-55-28 0-50 24-50 60v240h-127V1280h97l14 57c30-42 63-64 113-64 50 0 89 20 110 60zm459-113h-130v-95h121zm0 62v386h-130V1280Zm471 160v53h-257c0 60 18 98 68 98 43 0 67-25 67-70h122c0 96-78 152-180 152h-13c-113 0-200-70-200-190v-20c0-120 85-190 197-190h16c105 0 180 65 180 167zm-257-10h128c0-49-20-76-63-76-39 0-63 30-65 73zm702-42v275h-129v-240c0-32-22-57-50-57-30 0-57 28-57 60v240h-130V1280h98l13 57c29-40 67-64 125-64 76 0 130 43 130 118zm239-233v123h90v90h-90v166c0 44 22 52 43 52 10 0 34-5 46-10v77c-22 10-66 15-90 15-78 0-128-27-128-107v-190h-42v-90h47l45-123h79zm144 325v-20c0-115 84-190 194-190h18c110 0 194 76 194 190v20c0 120-84 190-194 190h-18c-110 0-194-72-194-190zm270 33v-85c0-48-29-75-67-75s-68 27-68 74v84c0 48 30 75 68 75s68-27 68-75" fill="#fff" /><path d="M560 1393 827 30A939 939 0 00 900 1890l276-1422a116 116 0 11 226 48L1135 1880a938 938 0 00 784-926c0-466-373-890-850-934L775 1440a116 116 0 11-226-47Z" fill="#fff" fill-rule="evenodd" /></svg>